<?xml version="1.0" encoding="iso-8859-1"?>
<!-- Generator: Adobe Illustrator 19.0.0, SVG Export Plug-In . SVG Version: 6.00 Build 0)  -->
<svg version="1.1" id="Layer_1" xmlns="http://www.w3.org/2000/svg" xmlns:xlink="http://www.w3.org/1999/xlink" x="0px" y="0px"
	 viewBox="0 0 512 512" style="enable-background:new 0 0 512 512;" xml:space="preserve">
<path style="fill:#5D5F66;" d="M306.087,50.087V86.15c0,9.238-7.456,16.696-16.696,16.696c-9.239,0-16.696-7.457-16.696-16.696
	V50.087c0-9.238-7.456-16.696-16.696-16.696s-16.696,7.457-16.696,16.696V86.15c0,9.238-7.456,16.696-16.696,16.696
	s-16.696-7.457-16.696-16.696V50.087C205.913,22.483,228.397,0,256,0S306.087,22.483,306.087,50.087z"/>
<path style="fill:#55575C;" d="M306.087,50.087V86.15c0,9.238-7.456,16.696-16.696,16.696c-9.239,0-16.696-7.457-16.696-16.696
	V50.087c0-9.238-7.456-16.696-16.696-16.696V0C283.603,0,306.087,22.483,306.087,50.087z"/>
<path style="fill:#7F8189;" d="M256,512c-122.75,0-222.609-99.864-222.609-222.609S133.25,66.783,256,66.783
	s222.609,99.864,222.609,222.609S378.75,512,256,512z"/>
<path style="fill:#757880;" d="M478.609,289.391c0-122.744-99.859-222.609-222.609-222.609V512
	C378.75,512,478.609,412.135,478.609,289.391z"/>
<path style="fill:#E7ECFD;" d="M256,478.609c-104.337,0-189.217-84.881-189.217-189.217S151.663,100.174,256,100.174
	s189.217,84.881,189.217,189.217S360.337,478.609,256,478.609z"/>
<path style="fill:#DAE0F0;" d="M445.217,289.391c0-104.337-84.881-189.217-189.217-189.217v378.435
	C360.337,478.609,445.217,393.728,445.217,289.391z"/>
<path style="fill:#96C8EF;" d="M410.935,272.696c-7.79-72.57-65.668-130.449-138.239-138.24c-5.454-0.557-11.019-0.89-16.696-0.89
	s-11.242,0.334-16.696,0.89c-72.57,7.791-130.449,65.67-138.239,138.24c-0.558,5.454-0.892,11.019-0.892,16.696
	c0,5.677,0.334,11.242,0.892,16.696c7.79,72.57,65.668,130.449,138.239,138.24c5.454,0.557,11.019,0.89,16.696,0.89
	s11.242-0.334,16.696-0.89c72.57-7.791,130.449-65.67,138.239-138.24c0.557-5.454,0.892-11.019,0.892-16.696
	C411.826,283.715,411.492,278.15,410.935,272.696z"/>
<path style="fill:#5AAAE7;" d="M272.696,444.327c72.57-7.791,130.449-65.67,138.239-138.24c0.557-5.454,0.892-11.019,0.892-16.696
	c0-5.677-0.334-11.242-0.892-16.696c-7.79-72.57-65.668-130.449-138.239-138.24c-5.454-0.557-11.019-0.89-16.696-0.89v311.652
	C261.677,445.217,267.242,444.883,272.696,444.327z"/>
<g>
	<path style="fill:#E7ECFD;" d="M272.696,134.456v49.197c0,9.238-7.456,16.696-16.696,16.696s-16.696-7.457-16.696-16.696v-49.197
		c5.454-0.557,11.019-0.89,16.696-0.89S267.242,133.899,272.696,134.456z"/>
	<path style="fill:#E7ECFD;" d="M272.696,395.13v49.197c-5.454,0.557-11.019,0.89-16.696,0.89s-11.242-0.334-16.696-0.89V395.13
		c0-9.238,7.456-16.696,16.696-16.696S272.696,385.892,272.696,395.13z"/>
</g>
<path style="fill:#DAE0F0;" d="M411.826,289.391c0,5.677-0.334,11.242-0.892,16.696h-49.195c-9.239,0-16.696-7.457-16.696-16.696
	s7.456-16.696,16.696-16.696h49.195C411.492,278.15,411.826,283.715,411.826,289.391z"/>
<path style="fill:#E7ECFD;" d="M166.957,289.391c0,9.238-7.456,16.696-16.696,16.696h-49.195
	c-0.558-5.454-0.892-11.019-0.892-16.696c0-5.677,0.334-11.242,0.892-16.696h49.195C159.5,272.696,166.957,280.153,166.957,289.391z
	"/>
<path style="fill:#FF5F4A;" d="M297.962,352.501L256,338.477l-28.939-9.683c-4.898-1.67-8.793-5.565-10.464-10.463L192.89,247.43
	c-4.231-13.023,8.125-25.489,21.147-21.148l41.962,14.024l28.939,9.683c4.898,1.67,8.793,5.565,10.464,10.463l23.707,70.9
	C323.339,344.264,310.983,356.842,297.962,352.501z"/>
<path style="fill:#DAE0F0;" d="M272.696,395.13v49.197c-5.454,0.557-11.019,0.89-16.696,0.89v-66.783
	C265.239,378.435,272.696,385.892,272.696,395.13z"/>
<path style="fill:#D8482B;" d="M297.962,352.501L256,338.477v-98.17l28.939,9.683c4.898,1.67,8.793,5.565,10.464,10.463l23.707,70.9
	C323.339,344.264,310.983,356.842,297.962,352.501z"/>
<path style="fill:#DAE0F0;" d="M272.696,134.456v49.197c0,9.238-7.456,16.696-16.696,16.696v-66.783
	C261.677,133.565,267.242,133.899,272.696,134.456z"/>
<g>
</g>
<g>
</g>
<g>
</g>
<g>
</g>
<g>
</g>
<g>
</g>
<g>
</g>
<g>
</g>
<g>
</g>
<g>
</g>
<g>
</g>
<g>
</g>
<g>
</g>
<g>
</g>
<g>
</g>
</svg>
