<?xml version="1.0" encoding="iso-8859-1"?>
<!-- Generator: Adobe Illustrator 19.0.0, SVG Export Plug-In . SVG Version: 6.00 Build 0)  -->
<svg version="1.1" id="Capa_1" xmlns="http://www.w3.org/2000/svg" xmlns:xlink="http://www.w3.org/1999/xlink" x="0px" y="0px"
	 viewBox="0 0 468.293 468.293" style="enable-background:new 0 0 468.293 468.293;" xml:space="preserve">
<path style="fill:#44C4A1;" d="M355.83,54.528H112.462c-9.401,0-17.022,7.621-17.022,17.022v276.134
	c0,9.401,7.621,17.022,17.022,17.022H355.83c9.401,0,17.022-7.621,17.022-17.022V71.55C372.853,62.149,365.232,54.528,355.83,54.528
	z"/>
<path style="fill:#F6C358;" d="M317.886,205.474c2.749-6.514,4.936-12.197,6.841-17.394c1.591-4.339,2.995-8.352,4.294-12.091
	c4.12-11.865,7.377-21.236,14.213-32.918c8.012-13.695,18.567-26.319,31.453-37.704c4.575-4.042,9.43-7.937,14.59-11.656
	l-8.213-11.396c-21.293,15.348-38.099,33.402-49.957,53.662c-7.527,12.869-11.159,23.312-15.357,35.401
	c-2.785,8.017-5.941,17.104-10.806,28.637c-5.828,13.806-12.549,27.246-19.945,40.234c-0.933-2.049-1.828-4.121-2.779-6.159
	c-26.927-57.723-46.381-99.43-90.421-131.005C163.143,82.54,129.453,69.625,91.66,64.696l-3.027,23.218
	c3.978,0.519,7.892,1.154,11.764,1.867c29.146,5.368,55.266,16.206,77.756,32.331c18.715,13.418,32.257,28.519,44.736,48.014
	l-57.642,4.915l-78.037,6.654l1.189,13.998l86.919-7.412l55.607-4.742c9.484,16.728,18.869,36.424,30.075,60.446
	c4.554,9.761,8.867,19.674,13.002,29.685c-12.418-3.09-25.11-4.903-37.81-5.359c-9.609-0.345-19.214,0.024-28.684,1.218
	c-10.989,1.388-36.727,4.639-63.622,20.856c-35.195,21.22-53.46,52.379-62.584,74.78l13.006,5.3c0.858-2.104,1.827-4.31,2.869-6.564
	c9.068-19.635,25.358-44.239,53.962-61.485c24.348-14.682,47.168-17.563,58.13-18.949c23.625-2.988,48.16-0.65,71.283,6.628
	c8.173,21.223,15.391,42.927,21.637,64.984c2.555,9.021,4.997,18.081,7.219,27.21l22.747-5.534
	c-10.093-41.488-23.6-81.964-40.16-120.683C301.776,239.907,310.506,222.965,317.886,205.474z"/>
<path style="fill:#64798A;" d="M362.22,0H106.072C78.327,0,55.835,22.492,55.835,50.237v367.818
	c0,27.745,22.492,50.237,50.237,50.237H362.22c27.745,0,50.237-22.492,50.237-50.237V50.237C412.458,22.492,389.966,0,362.22,0z
	 M372.853,347.684c0,9.401-7.621,17.022-17.022,17.022H112.462c-9.401,0-17.022-7.621-17.022-17.022V71.55
	c0-9.401,7.621-17.022,17.022-17.022H355.83c9.401,0,17.022,7.621,17.022,17.022V347.684z"/>
<path style="fill:#D5D6DB;" d="M261.659,427.524h-55.024c-8.082,0-14.634-6.552-14.634-14.634v-1.171
	c0-8.082,6.552-14.634,14.634-14.634h55.024c8.082,0,14.634,6.552,14.634,14.634v1.171
	C276.293,420.972,269.741,427.524,261.659,427.524z"/>
<polygon style="fill:#E87769;" points="351.851,267.792 285.659,271.178 242.119,321.16 233.751,164.449 "/>
<g>
</g>
<g>
</g>
<g>
</g>
<g>
</g>
<g>
</g>
<g>
</g>
<g>
</g>
<g>
</g>
<g>
</g>
<g>
</g>
<g>
</g>
<g>
</g>
<g>
</g>
<g>
</g>
<g>
</g>
</svg>
